<?xml version="1.0" encoding="UTF-8"?>
<svg xmlns="http://www.w3.org/2000/svg" width="3508" height="827" viewBox="0 0 3508 827">
  <rect x="0" y="0" width="3508" height="827" fill="#EFF6FF"/>
  <text x="48" y="64" font-family="Inter, Arial, sans-serif" font-size="44" font-weight="700" fill="#0F172A">Рисунок 1.2 — Референс‑архитектура прототипа (Next.js)</text>
  <line x1="48" y1="92" x2="3460" y2="92" stroke="#C7D2FE" stroke-width="6"/>
<rect x="140" y="160" width="754" height="190" rx="22" ry="22" fill="#DBEAFE" stroke="#1D4ED8" stroke-width="3"/>
<text x="162" y="246" text-anchor="start" font-family="Inter, Arial, sans-serif" font-size="30" font-weight="600" fill="#0F172A">
  <tspan x="162" dy="0">UI (Next.js / React)</tspan>
</text>
<rect x="964" y="160" width="754" height="190" rx="22" ry="22" fill="#DBEAFE" stroke="#1D4ED8" stroke-width="3"/>
<text x="986" y="246" text-anchor="start" font-family="Inter, Arial, sans-serif" font-size="30" font-weight="600" fill="#0F172A">
  <tspan x="986" dy="0">Route Handler</tspan>
  <tspan x="986" dy="34">API</tspan>
</text>
<rect x="1788" y="160" width="754" height="190" rx="22" ry="22" fill="#DBEAFE" stroke="#1D4ED8" stroke-width="3"/>
<text x="1810" y="246" text-anchor="start" font-family="Inter, Arial, sans-serif" font-size="30" font-weight="600" fill="#0F172A">
  <tspan x="1810" dy="0">Сервис</tspan>
  <tspan x="1810" dy="34">рекомендаций</tspan>
</text>
<rect x="2612" y="160" width="754" height="190" rx="22" ry="22" fill="#DBEAFE" stroke="#1D4ED8" stroke-width="3"/>
<text x="2634" y="246" text-anchor="start" font-family="Inter, Arial, sans-serif" font-size="30" font-weight="600" fill="#0F172A">
  <tspan x="2634" dy="0">БД (курсы / профиль</tspan>
  <tspan x="2634" dy="34">/ взаимодействия)</tspan>
</text>
<line x1="910" y1="255.0" x2="948" y2="255.0" stroke="#2563EB" stroke-width="12" stroke-linecap="round"/>
<line x1="1734" y1="255.0" x2="1772" y2="255.0" stroke="#2563EB" stroke-width="12" stroke-linecap="round"/>
<line x1="2558" y1="255.0" x2="2596" y2="255.0" stroke="#2563EB" stroke-width="12" stroke-linecap="round"/>
<text x="80" y="440" font-family="Inter, Arial, sans-serif" font-size="24" fill="#64748B">UI запрашивает данные → API отдаёт ответы → сервис ранжирует → БД хранит профиль и события</text>

  <text x="3460" y="803" text-anchor="end" font-family="Inter, Arial, sans-serif" font-size="24" fill="#64748B">Источник: составлено автором.</text>
</svg>
